<svg width="128" height="32" viewBox="0 0 128 32" fill="none" xmlns="http://www.w3.org/2000/svg">
<path d="M45.263 6.39148L37.8853 26.1945H42.4562L43.8464 22.2458H51.4326L52.7963 26.1945H57.3672L50.0193 6.39148H45.2663H45.263ZM50.2377 18.8764H45.0147L47.6262 11.3927L50.2377 18.8764Z" fill="#091632"/>
<path d="M72.7676 11.9885C71.6753 10.7837 70.1958 10.1714 68.3654 10.1714C67.111 10.1714 65.9856 10.4759 65.0224 11.0783C64.3042 11.5251 63.7316 12.111 63.3112 12.8193V10.3931H58.9951V26.1945H63.3112V17.8205C63.3112 16.5264 63.629 15.5235 64.2611 14.8416C64.8867 14.1631 65.734 13.8222 66.7833 13.8222C67.8325 13.8222 68.6368 14.1432 69.2227 14.7721C69.8151 15.4076 70.113 16.3212 70.113 17.4862V26.1912H74.4026V17.0394C74.4026 14.8847 73.8532 13.1867 72.7676 11.9852V11.9885Z" fill="#091632"/>
<path d="M100.174 6.39148L92.7964 26.1945H97.3673L98.7575 22.2458H106.344L107.707 26.1945H112.278L104.93 6.39148H100.177H100.174ZM105.149 18.8764H99.9259L102.537 11.3927L105.149 18.8764Z" fill="#091632"/>
<path d="M118.219 6.16968H113.903V26.1945H118.219V6.16968Z" fill="#091632"/>
<path d="M88.202 10.3965L84.485 20.3857L80.4734 10.3965H75.6211L82.1647 25.5028L79.4837 31.2819H84.3095L92.9947 10.3965H88.202Z" fill="#091632"/>
<path d="M122.121 5.4481H121.277V4.87549H123.561V5.4481H122.717V7.82791H122.118V5.4481H122.121Z" fill="#091632"/>
<path d="M124.151 7.8312V4.87878H124.541L125.7 6.55359L126.845 4.87878H127.246V7.8312H126.653V6.1564L125.796 7.39099H125.591L124.73 6.1564V7.8312H124.147H124.151Z" fill="#091632"/>
<path d="M15.8875 0L0 5.80554L15.8875 11.439L31.7716 5.80554L15.8875 0Z" fill="url(#paint0_linear_679_1445)"/>
<path d="M0.00341797 5.80554L15.8909 11.439L3.01541 16.0033L15.8909 20.5676L0.00341797 26.2011V5.80554Z" fill="url(#paint1_linear_679_1445)"/>
<path d="M28.7633 16.0033L15.8911 11.439L31.7753 5.80554V26.2011L15.8911 20.5676L28.7633 16.0033Z" fill="url(#paint2_linear_679_1445)"/>
<path d="M0.00341797 26.1978L15.8909 32L31.775 26.1978L15.8909 20.5643L0.00341797 26.1978Z" fill="url(#paint3_linear_679_1445)"/>
<defs>
<linearGradient id="paint0_linear_679_1445" x1="0.00330989" y1="5.71948" x2="31.8378" y2="5.71948" gradientUnits="userSpaceOnUse">
<stop stop-color="#582CFE"/>
<stop offset="1" stop-color="#05FBFF"/>
</linearGradient>
<linearGradient id="paint1_linear_679_1445" x1="1.19498" y1="22.6628" x2="10.4329" y2="9.69466" gradientUnits="userSpaceOnUse">
<stop stop-color="#4A9DFF"/>
<stop offset="1" stop-color="#2524E6"/>
</linearGradient>
<linearGradient id="paint2_linear_679_1445" x1="20.8096" y1="9.75092" x2="31.0305" y2="21.3719" gradientUnits="userSpaceOnUse">
<stop stop-color="#FF8D5E"/>
<stop offset="1" stop-color="#FFD234"/>
</linearGradient>
<linearGradient id="paint3_linear_679_1445" x1="0.00341797" y1="26.2838" x2="31.8379" y2="26.2838" gradientUnits="userSpaceOnUse">
<stop stop-color="#FF4646"/>
<stop offset="1" stop-color="#FFC328"/>
</linearGradient>
</defs>
</svg>
